HIERARCHY
ROOT Pelvis
{
	OFFSET 0.000000 0.000000 0.000000
	CHANNELS 6 Xposition Yposition Zposition Zrotation Yrotation Xrotation 
	JOINT Left_hip
	{
		OFFSET 0.069463 -0.088608 -0.009542
		CHANNELS 3 Zrotation Yrotation Xrotation
		JOINT Left_knee
		{
			OFFSET 0.030639 -0.359740 -0.005288
			CHANNELS 3 Zrotation Yrotation Xrotation
			JOINT Left_ankle
			{
				OFFSET -0.011068 -0.376034 -0.042462
				CHANNELS 3 Zrotation Yrotation Xrotation
				JOINT Left_foot
				{
					OFFSET 0.023192 -0.053321 0.111332
					CHANNELS 3 Zrotation Yrotation Xrotation
					End Site
					{
						OFFSET 0.000000 0.000000 0.000000
					}
				}
			}
		}
	}
	JOINT Right_hip
	{
		OFFSET -0.067438 -0.088025 -0.006263
		CHANNELS 3 Zrotation Yrotation Xrotation
		JOINT Right_knee
		{
			OFFSET -0.035962 -0.366229 -0.008063
			CHANNELS 3 Zrotation Yrotation Xrotation
			JOINT Right_ankle
			{
				OFFSET 0.013608 -0.375719 -0.040481
				CHANNELS 3 Zrotation Yrotation Xrotation
				JOINT Right_foot
				{
					OFFSET -0.021034 -0.045527 0.114617
					CHANNELS 3 Zrotation Yrotation Xrotation
					End Site
					{
						OFFSET 0.000000 0.000000 0.000000
					}
				}
			}
		}
	}
	JOINT Spine1
	{
		OFFSET -0.002610 0.101823 -0.019986
		CHANNELS 3 Zrotation Yrotation Xrotation
		JOINT Spine2
		{
			OFFSET 0.004114 0.128714 -0.000938
			CHANNELS 3 Zrotation Yrotation Xrotation
			JOINT Spine3
			{
				OFFSET 0.002191 0.048470 0.027684
				CHANNELS 3 Zrotation Yrotation Xrotation
				JOINT Neck
				{
					OFFSET -0.002856 0.198873 -0.044022
					CHANNELS 3 Zrotation Yrotation Xrotation
					JOINT Head
					{
						OFFSET 0.002981 0.062960 0.049860
						CHANNELS 3 Zrotation Yrotation Xrotation
						End Site
						{
							OFFSET 0.000000 0.000000 0.000000
						}
					}
				}
				JOINT Left_collar
				{
					OFFSET 0.073708 0.112550 -0.033440
					CHANNELS 3 Zrotation Yrotation Xrotation
					JOINT Left_shoulder
					{
						OFFSET 0.083291 0.030786 -0.008013
						CHANNELS 3 Zrotation Yrotation Xrotation
						JOINT Left_elbow
						{
							OFFSET 0.245601 -0.011792 -0.027873
							CHANNELS 3 Zrotation Yrotation Xrotation
							JOINT Left_wrist
							{
								OFFSET 0.232258 0.008622 -0.000487
								CHANNELS 3 Zrotation Yrotation Xrotation
								JOINT Left_palm
								{
									OFFSET 0.077300 -0.009457 -0.012851
									CHANNELS 3 Zrotation Yrotation Xrotation
									End Site
									{
										OFFSET 0.000000 0.000000 0.000000
									}
								}
							}
						}
					}
				}
				JOINT Right_collar
				{
					OFFSET -0.075339 0.110574 -0.037874
					CHANNELS 3 Zrotation Yrotation Xrotation
					JOINT Right_shoulder
					{
						OFFSET -0.086522 0.031207 -0.009986
						CHANNELS 3 Zrotation Yrotation Xrotation
						JOINT Right_elbow
						{
							OFFSET -0.237313 -0.011478 -0.019859
							CHANNELS 3 Zrotation Yrotation Xrotation
							JOINT Right_wrist
							{
								OFFSET -0.237599 0.007976 -0.003742
								CHANNELS 3 Zrotation Yrotation Xrotation
								JOINT Right_palm
								{
									OFFSET -0.076920 -0.006943 -0.009920
									CHANNELS 3 Zrotation Yrotation Xrotation
									End Site
									{
										OFFSET 0.000000 0.000000 0.000000
									}
								}
							}
						}
					}
				}
			}
		}
	}
}
MOTION
Frames: 8
Frame Time: 0.100000
0.000000 0.000000 0.000000 177.887265 18.448834 -16.636944 1.669515 3.200138 5.291659 1.426447 -5.127084 4.989817 1.492098 8.632065 -6.849032 -2.576370 7.701095 -0.496613 -1.133274 -2.120757 7.025631 -2.590228 -2.452468 2.916882 -7.793179 -5.886058 -7.132950 17.004689 -10.241216 11.556199 -1.507371 1.890588 -3.434360 4.231571 -5.367511 17.122713 -0.316038 -0.281440 -12.783817 -4.001458 -10.694931 17.186657 1.084669 -12.927999 -8.878669 -30.316420 -1.845759 2.119413 -54.781177 -2.728750 24.400874 3.286977 -10.275123 1.197214 -11.434901 -7.709981 13.832753 -14.614229 -8.595164 -14.757955 32.809645 10.638772 2.758413 47.953331 2.574819 13.750181 -7.182384 6.293440 -13.544131 6.604532 9.132989 -2.361751 16.438942 7.319488 -4.185548 
0.000453 -0.000120 0.002575 177.945670 18.783421 -16.794060 1.610554 3.162138 5.564011 1.496160 -5.281269 5.048071 1.425843 8.593952 -6.918553 -2.516141 7.696559 -0.481218 -1.173537 -2.220019 7.490787 -2.597336 -2.519120 2.825394 -7.860649 -5.993532 -7.289892 17.073229 -10.226556 11.610233 -1.413057 1.870731 -3.612039 4.238866 -5.430266 17.253501 -0.345643 -0.316302 -12.791185 -4.032198 -10.657325 17.355826 0.893850 -12.913279 -8.698066 -30.419150 -1.687154 2.089010 -54.678705 -2.663660 24.310252 3.267438 -10.552468 1.241276 -11.405133 -7.663710 13.830724 -14.642911 -8.610542 -14.797801 32.837042 10.501373 2.668290 47.703669 2.546129 13.661053 -7.235469 6.475301 -13.654575 6.549059 9.116583 -2.235149 16.468329 7.328503 -4.198155 
0.000748 0.000071 0.003197 177.906672 19.018160 -16.679072 1.609444 3.034943 5.278896 1.511994 -5.373431 5.313061 1.402512 8.637821 -6.954198 -2.444322 7.681784 -0.585265 -1.130457 -2.179288 7.537722 -2.572086 -2.463607 2.679480 -7.947864 -6.082117 -7.349440 17.108363 -10.337605 11.682319 -1.320872 1.876384 -3.573081 4.298582 -5.445692 17.020619 -0.317428 -0.318242 -12.754797 -3.965534 -10.974026 17.354916 0.969424 -13.000815 -8.566615 -30.297058 -1.377610 1.979797 -54.696182 -2.447743 24.411048 3.405055 -10.723784 1.461681 -11.405973 -7.729742 13.859020 -14.621129 -8.588043 -14.670273 32.650910 10.288540 2.428302 47.624814 2.484931 13.704377 -7.353932 6.866180 -13.459082 6.460495 9.216124 -2.235992 16.421168 7.310748 -4.094375 
-0.000381 0.000746 0.002063 177.758492 19.128445 -16.379518 1.537940 2.808993 4.491282 1.546527 -5.430642 6.033208 1.459386 8.719683 -7.158980 -2.325455 7.804906 -0.722828 -1.057362 -2.133817 6.920471 -2.602259 -2.461763 3.193056 -7.952787 -6.182728 -7.523151 16.914974 -10.374058 11.614931 -1.240737 1.906128 -3.047890 4.472901 -5.435618 16.808546 -0.179768 -0.298347 -12.596840 -3.629238 -11.761339 16.936593 1.567897 -13.470868 -9.185349 -30.064520 -1.001451 1.783548 -54.765358 -2.031208 24.309234 3.569986 -11.866510 1.560914 -11.400956 -7.787664 13.678478 -14.556611 -8.518034 -14.432013 32.263875 10.105068 2.129882 47.578400 2.196364 13.676294 -7.758327 8.254911 -13.192789 6.284809 9.459416 -2.249448 16.290140 7.215956 -3.927039 
-0.005372 0.000654 0.004136 177.655250 19.266901 -16.673152 1.448847 2.609332 4.453853 1.329312 -5.423486 6.999585 1.722289 8.615216 -7.786557 -2.493029 8.228902 -0.569858 -1.283957 -2.148369 7.095614 -2.544352 -2.680215 3.850351 -8.082112 -6.254632 -7.995960 17.069747 -10.409690 11.548699 -1.405339 1.923570 -2.991110 4.565573 -5.613366 17.670678 -0.105663 -0.473378 -12.356964 -3.331518 -12.128950 18.102928 1.880413 -14.192621 -8.822860 -30.221447 -1.274449 2.201577 -54.589829 -2.403982 23.794950 3.626454 -11.631025 0.737841 -11.708444 -7.769771 13.313637 -14.390727 -8.252582 -14.690922 32.377595 10.307498 2.353787 47.828972 2.255069 13.593338 -8.299700 9.343974 -13.628934 6.134742 9.756056 -2.593757 16.102094 6.944847 -3.825473 
-0.018723 0.000117 0.013149 177.777028 20.291299 -17.027410 0.880355 2.443297 5.324675 0.830790 -5.811072 7.375588 2.412285 8.582583 -8.842433 -3.246428 8.317292 -0.634209 -2.249863 -2.160355 7.678141 -2.629996 -3.733453 5.505878 -9.589354 -6.350907 -9.257350 20.418838 -12.302579 12.377640 -1.690304 1.730500 -5.822738 4.392503 -5.562312 18.617701 -0.933205 -0.679044 -12.639750 -4.997883 -12.917020 27.100827 -0.312525 -15.059877 -2.038486 -29.555824 0.736062 1.629787 -55.091149 -3.693885 25.398674 3.719034 -9.058110 0.690617 -13.345274 -9.275571 14.195394 -14.172609 -7.607604 -15.013988 32.145358 8.555024 2.291078 49.192595 1.844300 14.924497 -7.336418 8.325505 -13.510613 6.761578 11.847216 -4.583119 15.501675 6.312386 -2.914686 
-0.035768 0.002361 0.011103 177.688560 23.462156 -13.751618 -0.871472 1.223774 2.250835 0.932085 -7.608847 6.605632 2.961104 8.875407 -9.157197 -3.002312 7.421751 -0.734092 -2.932240 -2.356359 3.444076 -3.664974 -4.607842 8.224261 -11.040075 -7.727792 -8.498675 23.453752 -12.921080 13.166135 -1.782975 2.061582 -7.137177 5.013261 -4.893712 17.608375 -1.673136 0.132547 -14.516270 -5.496194 -15.352378 28.645061 -0.740953 -15.432470 2.512559 -28.938152 3.831643 -1.862619 -55.466667 -4.546275 29.676893 3.386204 -9.013392 2.147939 -13.236614 -10.665138 17.106368 -13.985598 -8.157337 -12.150544 32.373799 6.456995 0.224980 46.977931 2.297348 15.820414 -5.424753 3.760913 -14.245767 7.078429 12.530319 -3.455364 15.288270 7.110823 -1.617792 
-0.036822 0.009808 -0.020952 177.553241 26.198380 -11.726124 -1.960720 -0.118257 -1.595057 0.309029 -9.209815 7.253028 3.575768 8.277348 -9.184085 -1.272088 8.111666 -1.176574 -5.034286 -2.263244 -10.132090 -4.562230 -5.831356 28.055372 -6.273225 -7.928573 -6.615906 14.881601 -8.795109 8.383235 -0.998563 1.330556 3.126534 5.343044 -4.311349 15.025901 -0.422762 0.526022 -12.451777 -2.250814 -18.100254 15.948000 5.376087 -17.195596 -7.382563 -25.254167 -3.217814 0.398250 -57.497895 -5.958965 25.696787 4.740605 -16.262772 -3.358280 -8.788549 -8.750027 9.651399 -14.292991 -8.019495 -10.788773 26.436874 14.216150 0.135455 46.009721 7.706059 12.248975 -10.862581 9.321227 -20.053951 5.393801 11.115367 -6.897198 14.208055 6.637525 -2.569702 
